<mxfile host="app.diagrams.net" modified="2023-12-28T14:23:08.217Z" agent="Mozilla/5.0 (Windows NT 10.0; Win64; x64) AppleWebKit/537.36 (KHTML, like Gecko) Chrome/120.0.0.0 Safari/537.36 Edg/120.0.0.0" etag="k-94BFU5pZnNE7xbRAQp" version="22.1.15" type="github">
  <diagram name="第 1 页" id="w6OqS3Enu8yl8f-nAzuk">
    <mxGraphModel dx="719" dy="369" grid="1" gridSize="10" guides="1" tooltips="1" connect="1" arrows="1" fold="1" page="1" pageScale="1" pageWidth="827" pageHeight="1169" math="0" shadow="0">
      <root>
        <mxCell id="0" />
        <mxCell id="1" parent="0" />
        <mxCell id="5F3zNBzMkjVWypeHGoMf-1" value="訂餐者" style="shape=umlActor;verticalLabelPosition=bottom;verticalAlign=top;html=1;outlineConnect=0;" parent="1" vertex="1">
          <mxGeometry x="70" y="120" width="30" height="60" as="geometry" />
        </mxCell>
        <mxCell id="5F3zNBzMkjVWypeHGoMf-2" value="評價檔案數據庫" style="rounded=0;whiteSpace=wrap;html=1;fillColor=#fff2cc;strokeColor=#f93310;" parent="1" vertex="1">
          <mxGeometry x="410" y="30" width="120" height="40" as="geometry" />
        </mxCell>
        <mxCell id="5F3zNBzMkjVWypeHGoMf-7" value="" style="endArrow=none;html=1;rounded=0;edgeStyle=orthogonalEdgeStyle;strokeColor=#fd1c1c;" parent="1" edge="1">
          <mxGeometry relative="1" as="geometry">
            <mxPoint x="420" y="60" as="sourcePoint" />
            <mxPoint x="520" y="60" as="targetPoint" />
          </mxGeometry>
        </mxCell>
        <mxCell id="5F3zNBzMkjVWypeHGoMf-9" value="登錄介面" style="rounded=0;whiteSpace=wrap;html=1;fillColor=#fff2cc;strokeColor=#f93310;" parent="1" vertex="1">
          <mxGeometry x="570" y="70" width="80" height="40" as="geometry" />
        </mxCell>
        <mxCell id="5F3zNBzMkjVWypeHGoMf-10" value="餐飲數據庫" style="rounded=0;whiteSpace=wrap;html=1;fillColor=#fff2cc;strokeColor=#f93310;" parent="1" vertex="1">
          <mxGeometry x="590" y="180" width="90" height="40" as="geometry" />
        </mxCell>
        <mxCell id="5F3zNBzMkjVWypeHGoMf-11" value="訂單介面" style="rounded=0;whiteSpace=wrap;html=1;fillColor=#fff2cc;strokeColor=#f93310;" parent="1" vertex="1">
          <mxGeometry x="60" y="400" width="75" height="40" as="geometry" />
        </mxCell>
        <mxCell id="5F3zNBzMkjVWypeHGoMf-12" value="網站首頁" style="rounded=0;whiteSpace=wrap;html=1;fillColor=#fff2cc;strokeColor=#f93310;" parent="1" vertex="1">
          <mxGeometry x="350" y="400" width="75" height="40" as="geometry" />
        </mxCell>
        <mxCell id="5F3zNBzMkjVWypeHGoMf-13" value="顯示頁面" style="rounded=0;whiteSpace=wrap;html=1;fillColor=#fff2cc;strokeColor=#f93310;" parent="1" vertex="1">
          <mxGeometry x="640" y="400" width="75" height="40" as="geometry" />
        </mxCell>
        <mxCell id="5F3zNBzMkjVWypeHGoMf-14" value="" style="curved=1;endArrow=none;html=1;rounded=0;edgeStyle=orthogonalEdgeStyle;exitX=0.75;exitY=0;exitDx=0;exitDy=0;endFill=0;strokeColor=#f42525;" parent="1" source="5F3zNBzMkjVWypeHGoMf-12" edge="1">
          <mxGeometry width="50" height="50" relative="1" as="geometry">
            <mxPoint x="350" y="380" as="sourcePoint" />
            <mxPoint x="370" y="400" as="targetPoint" />
            <Array as="points">
              <mxPoint x="406" y="350" />
              <mxPoint x="370" y="350" />
            </Array>
          </mxGeometry>
        </mxCell>
        <mxCell id="5F3zNBzMkjVWypeHGoMf-15" value="" style="curved=1;endArrow=none;html=1;rounded=0;edgeStyle=orthogonalEdgeStyle;exitX=0.75;exitY=0;exitDx=0;exitDy=0;endFill=0;strokeColor=#f42525;" parent="1" edge="1">
          <mxGeometry width="50" height="50" relative="1" as="geometry">
            <mxPoint x="695.49" y="400" as="sourcePoint" />
            <mxPoint x="659.49" y="400" as="targetPoint" />
            <Array as="points">
              <mxPoint x="695.49" y="350" />
              <mxPoint x="659.49" y="350" />
            </Array>
          </mxGeometry>
        </mxCell>
        <mxCell id="5F3zNBzMkjVWypeHGoMf-16" value="" style="endArrow=none;html=1;rounded=0;edgeStyle=orthogonalEdgeStyle;strokeColor=#fd1c1c;" parent="1" edge="1">
          <mxGeometry relative="1" as="geometry">
            <mxPoint x="352.5" y="430" as="sourcePoint" />
            <mxPoint x="422.5" y="430" as="targetPoint" />
          </mxGeometry>
        </mxCell>
        <mxCell id="5F3zNBzMkjVWypeHGoMf-17" value="" style="endArrow=none;html=1;rounded=0;edgeStyle=orthogonalEdgeStyle;strokeColor=#fd1c1c;" parent="1" edge="1">
          <mxGeometry relative="1" as="geometry">
            <mxPoint x="575" y="100" as="sourcePoint" />
            <mxPoint x="645" y="100" as="targetPoint" />
          </mxGeometry>
        </mxCell>
        <mxCell id="5F3zNBzMkjVWypeHGoMf-18" value="" style="endArrow=none;html=1;rounded=0;edgeStyle=orthogonalEdgeStyle;strokeColor=#fd1c1c;" parent="1" edge="1">
          <mxGeometry relative="1" as="geometry">
            <mxPoint x="600" y="210" as="sourcePoint" />
            <mxPoint x="670" y="210" as="targetPoint" />
          </mxGeometry>
        </mxCell>
        <mxCell id="5F3zNBzMkjVWypeHGoMf-19" value="" style="endArrow=none;html=1;rounded=0;edgeStyle=orthogonalEdgeStyle;strokeColor=#fd1c1c;" parent="1" edge="1">
          <mxGeometry relative="1" as="geometry">
            <mxPoint x="642.5" y="430" as="sourcePoint" />
            <mxPoint x="712.5" y="430" as="targetPoint" />
          </mxGeometry>
        </mxCell>
        <mxCell id="5F3zNBzMkjVWypeHGoMf-20" value="" style="endArrow=none;html=1;rounded=0;edgeStyle=orthogonalEdgeStyle;strokeColor=#fd1c1c;" parent="1" edge="1">
          <mxGeometry relative="1" as="geometry">
            <mxPoint x="62.5" y="430" as="sourcePoint" />
            <mxPoint x="132.5" y="430" as="targetPoint" />
          </mxGeometry>
        </mxCell>
        <mxCell id="5F3zNBzMkjVWypeHGoMf-21" value="" style="endArrow=none;html=1;rounded=0;endSize=8;startSize=8;endFill=0;strokeColor=#f10909;entryX=0;entryY=0.75;entryDx=0;entryDy=0;" parent="1" target="5F3zNBzMkjVWypeHGoMf-2" edge="1">
          <mxGeometry width="50" height="50" relative="1" as="geometry">
            <mxPoint x="110" y="140" as="sourcePoint" />
            <mxPoint x="160" y="90" as="targetPoint" />
          </mxGeometry>
        </mxCell>
        <mxCell id="5F3zNBzMkjVWypeHGoMf-22" value="" style="endArrow=none;html=1;rounded=0;endSize=8;startSize=8;endFill=0;strokeColor=#f10909;entryX=0;entryY=0.75;entryDx=0;entryDy=0;" parent="1" target="5F3zNBzMkjVWypeHGoMf-9" edge="1">
          <mxGeometry width="50" height="50" relative="1" as="geometry">
            <mxPoint x="110" y="150" as="sourcePoint" />
            <mxPoint x="420" y="70" as="targetPoint" />
          </mxGeometry>
        </mxCell>
        <mxCell id="5F3zNBzMkjVWypeHGoMf-23" value="" style="endArrow=none;html=1;rounded=0;endSize=8;startSize=8;endFill=0;strokeColor=#f10909;entryX=0;entryY=0.5;entryDx=0;entryDy=0;" parent="1" target="5F3zNBzMkjVWypeHGoMf-10" edge="1">
          <mxGeometry width="50" height="50" relative="1" as="geometry">
            <mxPoint x="110" y="160" as="sourcePoint" />
            <mxPoint x="430" y="150" as="targetPoint" />
          </mxGeometry>
        </mxCell>
        <mxCell id="5F3zNBzMkjVWypeHGoMf-24" value="" style="endArrow=none;html=1;rounded=0;endSize=8;startSize=8;endFill=0;strokeColor=#f10909;entryX=0;entryY=0.75;entryDx=0;entryDy=0;exitX=1;exitY=0.25;exitDx=0;exitDy=0;" parent="1" source="5F3zNBzMkjVWypeHGoMf-11" target="5F3zNBzMkjVWypeHGoMf-10" edge="1">
          <mxGeometry width="50" height="50" relative="1" as="geometry">
            <mxPoint x="140" y="170" as="sourcePoint" />
            <mxPoint x="440" y="90" as="targetPoint" />
          </mxGeometry>
        </mxCell>
        <mxCell id="5F3zNBzMkjVWypeHGoMf-25" value="" style="endArrow=none;html=1;rounded=0;endSize=8;startSize=8;endFill=0;strokeColor=#f10909;entryX=0.25;entryY=1;entryDx=0;entryDy=0;exitX=0.8;exitY=0;exitDx=0;exitDy=0;exitPerimeter=0;" parent="1" source="5F3zNBzMkjVWypeHGoMf-12" target="5F3zNBzMkjVWypeHGoMf-9" edge="1">
          <mxGeometry width="50" height="50" relative="1" as="geometry">
            <mxPoint x="150" y="180" as="sourcePoint" />
            <mxPoint x="450" y="100" as="targetPoint" />
          </mxGeometry>
        </mxCell>
        <mxCell id="5F3zNBzMkjVWypeHGoMf-26" value="" style="endArrow=none;html=1;rounded=0;endSize=8;startSize=8;endFill=0;strokeColor=#f10909;exitX=0.25;exitY=0;exitDx=0;exitDy=0;" parent="1" source="5F3zNBzMkjVWypeHGoMf-12" edge="1">
          <mxGeometry width="50" height="50" relative="1" as="geometry">
            <mxPoint x="160" y="190" as="sourcePoint" />
            <mxPoint x="110" y="170" as="targetPoint" />
          </mxGeometry>
        </mxCell>
        <mxCell id="5F3zNBzMkjVWypeHGoMf-27" value="" style="endArrow=none;html=1;rounded=0;endSize=8;startSize=8;endFill=0;strokeColor=#f10909;entryX=0;entryY=0.5;entryDx=0;entryDy=0;exitX=1;exitY=0.5;exitDx=0;exitDy=0;" parent="1" source="5F3zNBzMkjVWypeHGoMf-11" target="5F3zNBzMkjVWypeHGoMf-12" edge="1">
          <mxGeometry width="50" height="50" relative="1" as="geometry">
            <mxPoint x="170" y="200" as="sourcePoint" />
            <mxPoint x="470" y="120" as="targetPoint" />
          </mxGeometry>
        </mxCell>
        <mxCell id="5F3zNBzMkjVWypeHGoMf-28" value="" style="endArrow=none;html=1;rounded=0;endSize=8;startSize=8;endFill=0;strokeColor=#f10909;exitX=1;exitY=0.5;exitDx=0;exitDy=0;" parent="1" source="5F3zNBzMkjVWypeHGoMf-12" edge="1">
          <mxGeometry width="50" height="50" relative="1" as="geometry">
            <mxPoint x="430" y="420" as="sourcePoint" />
            <mxPoint x="640" y="420" as="targetPoint" />
          </mxGeometry>
        </mxCell>
        <mxCell id="5F3zNBzMkjVWypeHGoMf-29" value="10:退出系統" style="endArrow=open;endSize=7;dashed=1;html=1;rounded=0;labelBackgroundColor=none;strokeColor=#f31616;" parent="1" edge="1">
          <mxGeometry y="10" width="160" relative="1" as="geometry">
            <mxPoint x="360" y="190" as="sourcePoint" />
            <mxPoint x="290" y="180" as="targetPoint" />
            <mxPoint as="offset" />
          </mxGeometry>
        </mxCell>
        <mxCell id="5F3zNBzMkjVWypeHGoMf-30" value="11:餐飲評價" style="endArrow=open;endSize=7;html=1;rounded=0;labelBackgroundColor=none;strokeColor=#f31616;" parent="1" edge="1">
          <mxGeometry y="10" width="160" relative="1" as="geometry">
            <mxPoint x="170" y="110" as="sourcePoint" />
            <mxPoint x="220" y="100" as="targetPoint" />
            <mxPoint as="offset" />
          </mxGeometry>
        </mxCell>
        <mxCell id="5F3zNBzMkjVWypeHGoMf-31" value="1:註冊" style="endArrow=open;endSize=7;html=1;rounded=0;labelBackgroundColor=none;strokeColor=#f31616;" parent="1" edge="1">
          <mxGeometry x="-0.5385" y="8" width="160" relative="1" as="geometry">
            <mxPoint x="330" y="120" as="sourcePoint" />
            <mxPoint x="380" y="110" as="targetPoint" />
            <mxPoint as="offset" />
          </mxGeometry>
        </mxCell>
        <mxCell id="5F3zNBzMkjVWypeHGoMf-32" value="3:驗證結果" style="endArrow=open;endSize=7;dashed=1;html=1;rounded=0;labelBackgroundColor=none;strokeColor=#f31616;" parent="1" edge="1">
          <mxGeometry x="0.0017" y="10" width="160" relative="1" as="geometry">
            <mxPoint x="230" y="300" as="sourcePoint" />
            <mxPoint x="190" y="260" as="targetPoint" />
            <mxPoint as="offset" />
          </mxGeometry>
        </mxCell>
        <mxCell id="5F3zNBzMkjVWypeHGoMf-33" value="9:更新數據" style="endArrow=open;endSize=7;html=1;rounded=0;labelBackgroundColor=none;strokeColor=#f31616;" parent="1" edge="1">
          <mxGeometry x="-0.3793" y="15" width="160" relative="1" as="geometry">
            <mxPoint x="360" y="300" as="sourcePoint" />
            <mxPoint x="410" y="280" as="targetPoint" />
            <mxPoint as="offset" />
          </mxGeometry>
        </mxCell>
        <mxCell id="5F3zNBzMkjVWypeHGoMf-34" value="2:身分驗證" style="endArrow=open;endSize=7;html=1;rounded=0;labelBackgroundColor=none;strokeColor=#f31616;" parent="1" edge="1">
          <mxGeometry x="-0.4615" y="18" width="160" relative="1" as="geometry">
            <mxPoint x="490" y="290" as="sourcePoint" />
            <mxPoint x="470" y="320" as="targetPoint" />
            <mxPoint as="offset" />
          </mxGeometry>
        </mxCell>
        <mxCell id="5F3zNBzMkjVWypeHGoMf-36" value="5:選擇店鋪" style="endArrow=open;endSize=7;html=1;rounded=0;labelBackgroundColor=none;strokeColor=#f31616;" parent="1" edge="1">
          <mxGeometry x="-0.5333" y="8" width="160" relative="1" as="geometry">
            <mxPoint x="510" y="410" as="sourcePoint" />
            <mxPoint x="560" y="410" as="targetPoint" />
            <mxPoint as="offset" />
          </mxGeometry>
        </mxCell>
        <mxCell id="5F3zNBzMkjVWypeHGoMf-37" value="7:選擇餐飲&lt;br&gt;8:下訂單" style="endArrow=open;endSize=7;html=1;rounded=0;labelBackgroundColor=none;strokeColor=#f31616;" parent="1" edge="1">
          <mxGeometry x="-0.1429" y="20" width="160" relative="1" as="geometry">
            <mxPoint x="280" y="430" as="sourcePoint" />
            <mxPoint x="210" y="430" as="targetPoint" />
            <mxPoint as="offset" />
          </mxGeometry>
        </mxCell>
        <mxCell id="5F3zNBzMkjVWypeHGoMf-38" value="" style="line;strokeWidth=1;fillColor=none;align=left;verticalAlign=middle;spacingTop=-1;spacingLeft=3;spacingRight=3;rotatable=0;labelPosition=right;points=[];portConstraint=eastwest;strokeColor=inherit;" parent="1" vertex="1">
          <mxGeometry x="65" y="200" width="40" height="8" as="geometry" />
        </mxCell>
        <mxCell id="5F3zNBzMkjVWypeHGoMf-39" value="" style="endArrow=none;html=1;rounded=0;endSize=8;startSize=8;endFill=0;strokeColor=#f10909;exitX=0.25;exitY=0;exitDx=0;exitDy=0;" parent="1" source="5F3zNBzMkjVWypeHGoMf-11" edge="1">
          <mxGeometry width="50" height="50" relative="1" as="geometry">
            <mxPoint x="339" y="438" as="sourcePoint" />
            <mxPoint x="79" y="203" as="targetPoint" />
          </mxGeometry>
        </mxCell>
        <mxCell id="5F3zNBzMkjVWypeHGoMf-40" value="4:展示店鋪信息&lt;br&gt;6:展示餐飲信息" style="endArrow=open;endSize=7;dashed=1;html=1;rounded=0;labelBackgroundColor=none;strokeColor=#f31616;" parent="1" edge="1">
          <mxGeometry x="-0.3" y="20" width="160" relative="1" as="geometry">
            <mxPoint x="660" y="340" as="sourcePoint" />
            <mxPoint x="700" y="340" as="targetPoint" />
            <mxPoint as="offset" />
            <Array as="points" />
          </mxGeometry>
        </mxCell>
      </root>
    </mxGraphModel>
  </diagram>
</mxfile>
